<svg id="Capa_1" enable-background="new 0 0 512 512" height="512" viewBox="0 0 512 512" width="512" xmlns="http://www.w3.org/2000/svg"><g><g><g fill="#fff18f"><path d="m150.995 50.995c-7.811 7.811-7.811 20.474 0 28.284l28.284 28.284c7.811 7.811 20.474 7.811 28.284 0 7.811-7.811 7.811-20.474 0-28.284l-28.284-28.284c-7.811-7.811-20.474-7.811-28.284 0z"/><path d="m361.005 50.995c-7.811-7.811-20.474-7.811-28.284 0l-28.284 28.284c-7.811 7.811-7.811 20.474 0 28.284 7.811 7.811 20.474 7.811 28.284 0l28.284-28.284c7.811-7.81 7.811-20.474 0-28.284z"/><path d="m187.5 429.241c0-11.046-8.954-20-20-20h-40c-11.046 0-20 8.954-20 20 0 11.046 8.954 20 20 20h40c11.046 0 20-8.955 20-20z"/><path d="m256 7.5c-11.046 0-20 8.954-20 20v40c0 11.046 8.954 20 20 20 11.046 0 20-8.954 20-20v-40c0-11.046-8.954-20-20-20z"/><path d="m105.138 296.343c7.811 7.811 7.811 20.474 0 28.284l-28.284 28.284c-7.811 7.811-20.474 7.811-28.284 0-7.811-7.811-7.811-20.474 0-28.284l28.284-28.284c7.811-7.811 20.474-7.811 28.284 0z"/><path d="m7.5 190.301c0-11.046 8.954-20 20-20h40c11.046 0 20 8.954 20 20 0 11.046-8.954 20-20 20h-40c-11.046.001-20-8.954-20-20z"/></g><path d="m147.5 353.981h20l-20-125.001v-74.999c0-27.614-22.386-50-50-50-27.614 0-50 22.386-50 50v100c0 55.229 44.771 100 100 100z" fill="#00b472"/><path d="m167.5 353.981h-20c-55.228 0-100-44.771-100-100v-43.68c0 27.614 22.386 50 50 50s50-22.386 50-50v18.679z" fill="#04a563"/><path d="m406.862 391.549c-7.811 7.811-7.811 20.474 0 28.284l28.284 28.284c7.811 7.811 20.474 7.811 28.284 0 7.811-7.811 7.811-20.474 0-28.284l-28.284-28.284c-7.811-7.81-20.474-7.81-28.284 0z" fill="#fff18f"/><path d="m504.5 285.508c0-11.046-8.954-20-20-20h-40c-11.046 0-20 8.954-20 20 0 11.046 8.954 20 20 20h40c11.046 0 20-8.954 20-20z" fill="#fff18f"/><path d="m364.5 449.188h-20l20-125.001v-74.999c0-27.614 22.386-50 50-50 27.614 0 50 22.386 50 50v100c0 55.228-44.771 100-100 100z" fill="#00b472"/><path d="m344.5 449.188h20c55.228 0 100-44.771 100-100v-43.68c0 27.614-22.386 50-50 50s-50-22.386-50-50v18.679z" fill="#04a563"/><path d="m256 47.5c-59.923 0-108.5 48.577-108.5 108.5v348.5h63.5l46.478-40.284 43.522 40.284h63.5v-348.5c0-59.923-48.577-108.5-108.5-108.5z" fill="#00c272"/><path d="m301 504.5h-90v-414.574c0-23.431 18.995-42.426 42.426-42.426h5.147c23.432 0 42.427 18.995 42.427 42.426z" fill="#44cf79"/></g><g><g><g><path d="m183.551 185.928c-4.142 0-7.5-3.358-7.5-7.5v-12c0-4.142 3.358-7.5 7.5-7.5s7.5 3.358 7.5 7.5v12c0 4.142-3.358 7.5-7.5 7.5z"/></g></g><g><g><path d="m328.449 185.928c-4.142 0-7.5-3.358-7.5-7.5v-12c0-4.142 3.358-7.5 7.5-7.5s7.5 3.358 7.5 7.5v12c0 4.142-3.358 7.5-7.5 7.5z"/></g></g><g><g><path d="m256 193.072c-8.477 0-16.539-3.671-22.118-10.073-2.722-3.123-2.396-7.86.726-10.582s7.86-2.397 10.582.726c2.73 3.132 6.67 4.928 10.811 4.928s8.081-1.796 10.811-4.928c2.721-3.124 7.459-3.448 10.582-.726s3.448 7.459.726 10.582c-5.581 6.401-13.643 10.073-22.12 10.073z"/></g></g></g><g><path d="m484.5 258.008h-12.5v-8.82c0-31.706-25.794-57.5-57.5-57.5-16.82 0-31.976 7.261-42.5 18.812v-54.5c0-22.036-6.177-42.655-16.89-60.22l11.198-11.198c10.723-10.722 10.723-28.169 0-38.891-10.722-10.723-28.169-10.722-38.891 0l-11.197 11.199c-10.014-6.107-21.023-10.733-32.72-13.587v-15.803c0-15.164-12.336-27.5-27.5-27.5s-27.5 12.336-27.5 27.5v15.802c-11.696 2.854-22.706 7.48-32.72 13.587l-11.198-11.198c-10.722-10.723-28.169-10.723-38.891 0-10.723 10.722-10.723 28.169 0 38.891l11.198 11.198c-4.931 8.085-8.899 16.819-11.748 26.039-10.347-15.278-27.841-25.339-47.642-25.339-31.706 0-57.5 25.794-57.5 57.5v8.82h-12.499c-15.164 0-27.5 12.336-27.5 27.5s12.336 27.5 27.5 27.5h12.5v36.179c0 19.282 5.063 37.816 14.546 54.064l-11.279 11.279c-10.723 10.722-10.723 28.169 0 38.891 5.361 5.361 12.403 8.042 19.445 8.042s14.085-2.681 19.446-8.042l11.274-11.274c14.116 8.238 29.975 13.14 46.568 14.28v40.521h-12.5c-15.164 0-27.5 12.336-27.5 27.5s12.336 27.5 27.5 27.5h12.5v47.76c0 4.142 3.358 7.5 7.5 7.5h217c4.142 0 7.5-3.358 7.5-7.5v-48.077c16.592-1.138 32.447-6.036 46.567-14.278l11.276 11.276c5.361 5.361 12.403 8.042 19.446 8.042 7.042 0 14.084-2.681 19.445-8.042 5.194-5.194 8.055-12.1 8.055-19.445 0-7.346-2.86-14.251-8.055-19.445l-11.278-11.278c9.482-16.245 14.544-34.774 14.544-54.065v-36.179h12.5c15.164 0 27.5-12.337 27.5-27.5s-12.336-27.501-27.5-27.501zm-146.476-201.71c4.874-4.874 12.804-4.875 17.678 0 4.874 4.874 4.874 12.804 0 17.678l-9.357 9.356c-5.243-6.506-11.172-12.435-17.678-17.678zm-94.524-28.798c0-6.893 5.607-12.5 12.5-12.5s12.5 5.607 12.5 12.5v13.175c-1.591-.171-3.192-.308-4.801-.414-1.685-.173-3.395-.262-5.125-.262h-5.147c-1.73 0-3.44.089-5.125.262-1.609.106-3.21.242-4.801.414v-13.175zm-87.202 46.476c-4.874-4.874-4.874-12.804 0-17.678s12.804-4.874 17.678 0l9.357 9.357c-6.506 5.243-12.435 11.172-17.678 17.678zm-128.798 128.826c-6.893 0-12.5-5.608-12.5-12.5s5.607-12.5 12.5-12.5h12.5v25zm44.051 144.806c-4.874 4.874-12.804 4.875-17.678 0-4.874-4.874-4.874-12.804 0-17.678l9.286-9.286c2.412 3.041 4.995 5.974 7.756 8.776 3.145 3.193 6.458 6.164 9.916 8.908zm55.949 94.133c-6.893 0-12.5-5.608-12.5-12.5s5.607-12.5 12.5-12.5h12.5v25zm20-153.733c-4.142 0-7.5 3.358-7.5 7.5v50.663c-47.39-3.855-85-44.007-85-92.19v-100c0-23.435 19.065-42.5 42.5-42.5s42.5 19.065 42.5 42.5c0 .137.013.271.021.406-.008.538-.021 1.074-.021 1.613v109.508c0 4.142 3.358 7.5 7.5 7.5s7.5-3.358 7.5-7.5v-109.508c0-38.892 22.1-72.715 54.398-89.585-3.759 7.011-5.898 15.015-5.898 23.511v407.074h-48.5v-201.492c0-4.142-3.358-7.5-7.5-7.5zm209.5 208.992h-48.5v-32.759c0-4.142-3.358-7.5-7.5-7.5s-7.5 3.358-7.5 7.5v32.759h-75v-407.074c0-17.993 13.678-32.848 31.182-34.723 2.09-.129 4.196-.203 6.318-.203s4.228.074 6.318.203c17.504 1.875 31.182 16.73 31.182 34.723v344.314c0 4.142 3.358 7.5 7.5 7.5s7.5-3.358 7.5-7.5v-344.314c0-8.496-2.139-16.5-5.898-23.511 32.298 16.87 54.398 50.693 54.398 89.585zm15-247.812c0-23.435 19.065-42.5 42.5-42.5s42.5 19.065 42.5 42.5v100c0 48.319-37.553 88.349-85 92.194zm86.127 175.949c2.361 2.361 3.661 5.5 3.661 8.839s-1.3 6.478-3.661 8.839c-4.873 4.873-12.803 4.875-17.678 0l-9.281-9.281c3.361-2.667 6.586-5.548 9.654-8.64 2.86-2.884 5.531-5.905 8.02-9.042zm26.373-127.129h-12.5v-25h12.5c6.893 0 12.5 5.608 12.5 12.5s-5.607 12.5-12.5 12.5z"/></g></g></svg>